<svg width="772" height="180" viewBox="0 0 772 180" fill="none" xmlns="http://www.w3.org/2000/svg">
<path d="M208.3 172.1V173C208.3 175.8 206 177.4 202.7 177.4H156C152.7 177.4 150.4 175.8 150.4 173V172.1C150.4 165.6 159.5 162.5 158.8 151.8L156.5 110.5C155.3 86.9 150.4 78.3 140.4 78.3C130.8 78.3 125.9 87.6 125.9 100.5C126.4 103.8 126.6 106.8 126.6 110.3V151.9C126.6 162.6 135 165.7 135 172.2V173.1C135 175.9 132.7 177.5 129.4 177.5H83C79.5 177.5 77.4 175.9 77.4 173.1V172.2C77.4 165.7 85.6 162.6 85.6 151.9V107.5C85.6 87.7 79.5 78.3 69.7 78.3C59 78.3 54.1 87.9 54.1 100.5V151.9C54.1 162.6 64.4 165.7 64.4 172.2V173.1C64.4 175.9 62.3 177.5 58.8 177.5H8.40002C4.90002 177.5 2.80002 175.9 2.80002 173.1V172.2C2.80002 165.7 13.1 162.6 13.1 151.9V105.9C13.1 94.9 0.700012 93.3 0.700012 86.5V85.8C0.700012 83 3.00002 81.6 6.30002 80L41.3 63.9C47.1 61.1 50.2 64.8 50.2 69.5V77.9C57 68.6 67.9 63 81.3 63C97.4 63 111.4 69.5 119.6 82.1C125.9 70 138.7 63 154.2 63C174.3 63 194.4 74.2 197.2 112L200.2 151.9C200.6 162.5 208.3 165.5 208.3 172.1Z" fill="#fff"/>
<path d="M343.7 170.9C343.7 177 330.2 178.6 317.3 178.6C303.3 178.6 296.5 175.8 294.7 167.4C289.8 174.2 280.5 179.5 265 179.5C240 179.5 220.9 168.1 220.9 144C220.9 120.4 240.7 108.3 262.9 108.3C272.7 108.3 280.6 110.6 286.5 114.1V113.4C283.7 85.8 282.1 73.9 269.9 73.9C253.8 73.9 260.3 105.2 239.5 105.2C229.7 105.2 223.2 99.1 223.2 90C223.2 70.9 246.1 62.7 269.9 62.7C301.2 62.7 322.9 80.9 326.6 109.9L331.7 151.7C333.9 168.3 343.7 164.4 343.7 170.9ZM290 150.8L289.1 140.1C287.5 126.1 281.4 120.7 274.6 120.7C267.6 120.7 262.7 127 262.7 136.6C262.7 153.2 268.3 167.7 277.9 167.7C285.6 167.6 290 158.8 290 150.8Z" fill="#fff"/>
<path d="M490.1 172.1V173C490.1 175.8 487.8 177.4 484.5 177.4H437.8C434.3 177.4 432.2 175.8 432.2 173V172.1C432.2 165.3 441.3 162.5 440.6 151.8L438.3 110C437.1 86.9 432.7 78.2 422.2 78.2C411.9 78.2 407 87.3 407 100.8V151.7C407 162.4 417.3 165.2 417.3 172V172.9C417.3 175.7 415.2 177.3 411.7 177.3H361.3C357.8 177.3 355.7 175.7 355.7 172.9V172C355.7 165.2 366 162.4 366 151.7V105.7C366 94.5 353.6 93.1 353.6 86.3V85.6C353.6 82.8 355.9 81.4 359.2 79.8L391.9 63.7C397.7 60.7 400.8 64.6 400.8 69.3V80.3C407.1 69.1 418.8 62.8 434.2 62.8C454.5 62.8 476 74.2 478.8 111.4L481.8 151.8C482.4 162.5 490.1 165.3 490.1 172.1Z" fill="#fff"/>
<path d="M629.2 171.8V172.7C629.2 175.5 627.1 177.1 623.8 177.1H590.4C586.7 177.1 584.3 174.8 584.3 171.3V169.2C577.3 175.7 567.3 179.5 555.8 179.5C527.5 179.5 500.7 159.4 500.7 121.1C500.7 86.3 526.6 62.7 556 62.7C565.8 62.7 573.7 65 580.1 69.2V38.1C580.1 27.1 567.7 25.7 567.7 19V18.3C567.7 15.7 569.8 13.2 573.1 12.2L609.5 1.20001C616.3 -0.899987 619.8 0.499988 619.8 6.79999V151.6C619.8 162.5 629.2 165.3 629.2 171.8ZM580.1 148.5V103.4C580.1 88.5 569.8 74.2 559.1 74.2C547.7 74.2 541.4 84.2 540.7 102.9C540 122.5 547.7 167.3 565.2 168C573.1 168.3 580.1 161.1 580.1 148.5Z" fill="#fff"/>
<path d="M771.5 170.9C771.5 177.2 762.4 178.6 747.4 178.6C732.9 178.6 726.6 175.1 725.5 165.1C719.4 174.4 708.5 179.6 692.6 179.6C669 179.6 648.9 163.5 648.9 133.6V94.6C648.9 83.6 639.6 80.8 639.6 75V74C639.6 71.4 641.7 69.1 645 68.6L679.8 63.9C686.6 63 690.8 64.4 690.8 68.6L690.1 137.7C689.9 156.8 694.8 164.1 705 164.1C713.6 164.1 720.4 155 720.4 140.7V94.5C720.4 83.5 711.1 80.7 711.1 74.9V74C711.1 71.4 713.2 69.1 716.5 68.6L751.3 63.9C758.1 63 761.6 64.4 761.6 68.6V151.5C761.4 170.4 771.5 161.3 771.5 170.9Z" fill="#fff"/>
<path d="M660.3 45.7L652.1 37.5C647.8 33.2 647.8 26.3 652.1 22L660.3 13.8C664.6 9.49998 671.5 9.49998 675.8 13.8L684 22C688.3 26.3 688.3 33.2 684 37.5L675.8 45.7C671.6 50 664.6 50 660.3 45.7Z" fill="#fff"/>
<path d="M729.5 45.7L721.3 37.5C717 33.2 717 26.3 721.3 22L729.5 13.8C733.8 9.49998 740.7 9.49998 745 13.8L753.2 22C757.5 26.3 757.5 33.2 753.2 37.5L745 45.7C740.8 50 733.8 50 729.5 45.7Z" fill="#fff"/>
</svg>
